 http://www.imdb.com/title/tt0043014/

Source: Sunset.Blvd.1950.720p.HDTV.x264-QuiNoLiNe Thanks!

Subs: Brazilian, Dutch, English, Finnish, French, Portuguese, Slovenian and Spanish.

Sample and Screens included.

General
Complete name                            : Sunset Blvd.-720p MP4 AAC x264 HDTV 1950-CC.mp4
Format                                   : MPEG-4
Format profile                           : Base Media
Codec ID                                 : isom
File size                                : 2.67 GiB
Duration                                 : 1h 50mn
Overall bit rate mode                    : Variable
Overall bit rate                         : 3 467 Kbps
Encoded date                             : UTC 2012-10-17 16:01:59

Video
ID                                       : 1
Format                                   : AVC
Format/Info                              : Advanced Video Codec
Format profile                           : High@L4.1
Format settings, CABAC                   : Yes
Format settings, ReFrames                : 5 frames
Codec ID                                 : avc1
Codec ID/Info                            : Advanced Video Coding
Duration                                 : 1h 50mn
Bit rate                                 : 3 074 Kbps
Maximum bit rate                         : 8 797 Kbps
Width                                    : 960 pixels
Height                                   : 720 pixels
Display aspect ratio                     : 4:3
Frame rate mode                          : Variable
Frame rate                               : 23.976 fps
Minimum frame rate                       : 19.048 fps
Maximum frame rate                       : 24.390 fps
Color space                              : YUV
Chroma subsampling                       : 4:2:0
Bit depth                                : 8 bits
Scan type                                : Progressive
Bits/(Pixel*Frame)                       : 0.185
Stream size                              : 2.37 GiB (89%)
Writing library                          : x264 core 112

Audio
ID                                       : 2
Format                                   : AAC
Format/Info                              : Advanced Audio Codec
Format profile                           : LC
Codec ID                                 : 40
Duration                                 : 1h 50mn
Bit rate mode                            : Variable
Bit rate                                 : 384 Kbps
Maximum bit rate                         : 461 Kbps
Channel(s)                               : 6 channels
Channel positions                        : Front: L C R, Side: L R, LFE
Sampling rate                            : 48.0 KHz
Compression mode                         : Lossy
Delay relative to video                  : 83ms
Stream size                              : 303 MiB (11%)

Enjoy..

Requested by DreamExtractor.

Coming up: The Horse Whisperer, Silence of the Lambs, The International and more...